<svg fill="#0A5D19" xmlns="http://www.w3.org/2000/svg" xmlns:xlink="http://www.w3.org/1999/xlink" version="1.2" baseProfile="tiny" x="0px" y="0px" viewBox="0 0 128 128" xml:space="preserve"><g><path fill="#0A5D19" d="M64,1C40.6,1,21.6,20,21.6,43.4c0,22.6,17.6,41,39.9,42.3V54.2L42.6,39.3c-1.1-0.9-1.3-2.4-0.4-3.5   c0.9-1.1,2.4-1.3,3.5-0.4l15.8,12.5V30.8c0-1.4,1.1-2.5,2.5-2.5c1.4,0,2.5,1.1,2.5,2.5v32.8L82.3,51c1.1-0.9,2.7-0.7,3.5,0.4   c0.9,1.1,0.7,2.7-0.4,3.5l-18.9,15v15.8c22.3-1.3,39.9-19.7,39.9-42.3C106.4,20,87.4,1,64,1z"></path><path fill="#0A5D19" d="M61.5,85.7v38.8c0,1.4,1.1,2.5,2.5,2.5s2.5-1.1,2.5-2.5V85.7c-0.8,0-1.7,0.1-2.5,0.1   C63.2,85.8,62.3,85.8,61.5,85.7z"></path></g></svg>